<svg height="782" width="720" xmlns="http://www.w3.org/2000/svg">
<rect height="782" fill="#555" width="720"></rect>
<text fill="#7f7" font-family="Courier New" font-size="12" xml:space="preserve">
<tspan x="10" y="26">12 megabytes installed</tspan>
<tspan x="10" y="42"></tspan>
<tspan x="10" y="58">node_modules</tspan>
<tspan x="10" y="74">└─┬ activator@3.0.1 </tspan>
<tspan x="10" y="90">  ├── async@0.2.10 </tspan>
<tspan x="10" y="106">  ├─┬ jsonwebtoken@5.7.0 </tspan>
<tspan x="10" y="122">  │ ├─┬ jws@3.1.4 </tspan>
<tspan x="10" y="138">  │ │ ├── base64url@2.0.0 </tspan>
<tspan x="10" y="154">  │ │ ├─┬ jwa@1.1.5 </tspan>
<tspan x="10" y="170">  │ │ │ ├── buffer-equal-constant-time@1.0.1 </tspan>
<tspan x="10" y="186">  │ │ │ └── ecdsa-sig-formatter@1.0.9 </tspan>
<tspan x="10" y="202">  │ │ └── safe-buffer@5.0.1 </tspan>
<tspan x="10" y="218">  │ ├── ms@0.7.3 </tspan>
<tspan x="10" y="234">  │ └── xtend@4.0.1 </tspan>
<tspan x="10" y="250">  ├── lodash@4.17.4 </tspan>
<tspan x="10" y="266">  ├── nodemailer@4.0.1 </tspan>
<tspan x="10" y="282">  └─┬ styliner@1.0.3 </tspan>
<tspan x="10" y="298">    ├─┬ cheerio@0.10.8 </tspan>
<tspan x="10" y="314">    │ ├── cheerio-select@0.0.3 </tspan>
<tspan x="10" y="330">    │ ├── entities@0.5.0 </tspan>
<tspan x="10" y="346">    │ ├─┬ htmlparser2@2.6.0 </tspan>
<tspan x="10" y="362">    │ │ ├── domhandler@2.0.3 </tspan>
<tspan x="10" y="378">    │ │ └── domutils@1.0.1 </tspan>
<tspan x="10" y="394">    │ └── underscore@1.4.4 </tspan>
<tspan x="10" y="410">    ├─┬ CSSselect@0.3.11 </tspan>
<tspan x="10" y="426">    │ ├── CSSwhat@0.4.7 </tspan>
<tspan x="10" y="442">    │ └─┬ domutils@1.2.2 </tspan>
<tspan x="10" y="458">    │   └── domelementtype@1.3.0 </tspan>
<tspan x="10" y="474">    ├── lodash@1.0.2 </tspan>
<tspan x="10" y="490">    ├── parserlib@1.1.1 </tspan>
<tspan x="10" y="506">    ├── q@1.5.0 </tspan>
<tspan x="10" y="522">    ├─┬ q-io@1.13.2 </tspan>
<tspan x="10" y="538">    │ ├─┬ collections@0.2.2 </tspan>
<tspan x="10" y="554">    │ │ └── weak-map@1.0.0 </tspan>
<tspan x="10" y="570">    │ ├── mime@1.3.4 </tspan>
<tspan x="10" y="586">    │ ├── mimeparse@0.1.4 </tspan>
<tspan x="10" y="602">    │ ├── qs@1.2.2 </tspan>
<tspan x="10" y="618">    │ └── url2@0.0.0 </tspan>
<tspan x="10" y="634">    ├── qx@1.0.0 </tspan>
<tspan x="10" y="650">    └─┬ winston@0.6.2 </tspan>
<tspan x="10" y="666">      ├── async@0.1.22 </tspan>
<tspan x="10" y="682">      ├── colors@0.6.2 </tspan>
<tspan x="10" y="698">      ├── cycle@1.0.3 </tspan>
<tspan x="10" y="714">      ├── eyes@0.1.8 </tspan>
<tspan x="10" y="730">      ├── pkginfo@0.2.3 </tspan>
<tspan x="10" y="746">      ├── request@2.9.203 </tspan>
<tspan x="10" y="762">      └── stack-trace@0.0.9</tspan>
</text>
</svg>
